<svg width="49" height="9" viewBox="0 0 49 9" fill="none" xmlns="http://www.w3.org/2000/svg">
<g id="HorizonUI">
<path fill-rule="evenodd" clip-rule="evenodd" d="M10.5683 8.60162C10.0077 8.60315 9.49525 8.47695 9.03089 8.22301C8.57345 7.96905 8.20572 7.62173 7.9277 7.18106C7.65658 6.73346 7.52025 6.22687 7.5187 5.66128C7.51714 5.08879 7.6507 4.58146 7.91939 4.13929C8.195 3.6971 8.56083 3.34778 9.01688 3.09133C9.47985 2.83486 9.99161 2.70586 10.5522 2.70433C11.1127 2.7028 11.6217 2.82901 12.0791 3.08297C12.5366 3.33693 12.9009 3.68425 13.172 4.12495C13.45 4.56563 13.5898 5.07221 13.5913 5.6447C13.5929 6.21029 13.4559 6.71763 13.1803 7.16671C12.9116 7.60889 12.5492 7.9582 12.0932 8.21465C11.6371 8.4711 11.1288 8.60009 10.5683 8.60162ZM10.5644 7.2049C10.8482 7.20412 11.0937 7.13792 11.3009 7.00631C11.5151 6.87467 11.6807 6.69143 11.7977 6.4566C11.9216 6.22175 11.9832 5.95258 11.9823 5.64909C11.9815 5.34561 11.9185 5.08023 11.7933 4.85295C11.675 4.61876 11.5084 4.43643 11.2936 4.30597C11.0856 4.16858 10.8397 4.10028 10.556 4.10106C10.2722 4.10183 10.0233 4.17149 9.80914 4.31002C9.59496 4.44166 9.42591 4.6249 9.30199 4.85975C9.18496 5.08769 9.12686 5.3534 9.12769 5.65689C9.12852 5.96037 9.18808 6.22921 9.30636 6.4634C9.43157 6.69758 9.60162 6.87989 9.81651 7.01036C10.0314 7.14082 10.2807 7.20567 10.5644 7.2049Z" fill="#1B2559"/>
<path d="M16.4634 3.00892C16.2483 3.1352 16.0793 3.35081 15.9565 3.65575L15.9542 2.81373L14.5009 2.8177L14.5163 8.46669L16.0734 8.46244L16.0651 5.42068C16.064 4.99993 16.1807 4.67543 16.4154 4.44718C16.6501 4.21202 16.9577 4.09392 17.3383 4.09289L17.8262 4.09155L17.8225 2.74656L17.4904 2.74746C17.0959 2.74854 16.7536 2.83569 16.4634 3.00892Z" fill="#1B2559"/>
<path d="M23.537 4.13804L20.7569 7.20811L20.7603 8.44964L25.6392 8.43632L25.6355 7.09132L22.9155 7.09875L25.6168 4.0289L25.6134 2.78736L20.8799 2.80029L20.8835 4.14528L23.537 4.13804Z" fill="#1B2559"/>
<path fill-rule="evenodd" clip-rule="evenodd" d="M29.1397 8.55092C28.5792 8.55245 28.0667 8.42624 27.6024 8.17231C27.1449 7.91835 26.7772 7.57103 26.4992 7.13035C26.228 6.68276 26.0917 6.17616 26.0902 5.61057C26.0886 5.03809 26.2222 4.53076 26.4909 4.08859C26.7665 3.6464 27.1323 3.29708 27.5883 3.04063C28.0513 2.78416 28.5631 2.65515 29.1236 2.65362C29.6842 2.65209 30.1932 2.77831 30.6506 3.03226C31.1081 3.28622 31.4723 3.63355 31.7434 4.07425C32.0214 4.51493 32.1612 5.02151 32.1628 5.594C32.1643 6.15958 32.0273 6.66692 31.7517 7.11601C31.483 7.55818 31.1207 7.90749 30.6646 8.16394C30.2086 8.4204 29.7003 8.54939 29.1397 8.55092ZM29.1359 7.15419C29.4196 7.15342 29.6651 7.08722 29.8724 6.9556C30.0866 6.82396 30.2522 6.64073 30.3692 6.4059C30.4931 6.17104 30.5546 5.90187 30.5538 5.59839C30.553 5.2949 30.49 5.02952 30.3648 4.80225C30.2465 4.56806 30.0799 4.38573 29.865 4.25526C29.657 4.11788 29.4112 4.04958 29.1274 4.05035C28.8437 4.05113 28.5948 4.12078 28.3806 4.25931C28.1664 4.39095 27.9974 4.5742 27.8735 4.80905C27.7564 5.03698 27.6983 5.3027 27.6992 5.60618C27.7 5.90967 27.7595 6.17851 27.8778 6.4127C28.003 6.64687 28.1731 6.82919 28.388 6.95965C28.6029 7.09012 28.8522 7.15497 29.1359 7.15419Z" fill="#1B2559"/>
<path d="M35.0762 2.88568C34.8408 3.01499 34.6579 3.20315 34.5275 3.45015L34.5257 2.76303L33.0724 2.767L33.0878 8.41598L34.6449 8.41173L34.6359 5.11132C34.6353 4.8906 34.6763 4.70081 34.7589 4.54194C34.8484 4.38305 34.9727 4.25856 35.1316 4.16846C35.2905 4.07836 35.4703 4.03303 35.671 4.03249C35.8786 4.03192 36.0587 4.07626 36.2112 4.16551C36.3706 4.25474 36.492 4.37857 36.5755 4.53698C36.6659 4.69538 36.7114 4.88493 36.712 5.10565L36.721 8.40606L38.2781 8.40181L38.2682 4.77032C38.267 4.34268 38.176 3.97047 37.9952 3.65368C37.8144 3.32999 37.5611 3.07892 37.2354 2.90048C36.9166 2.72201 36.5426 2.63337 36.1135 2.63454C35.7191 2.63562 35.3733 2.71933 35.0762 2.88568Z" fill="#1B2559"/>
<path d="M42.4891 8.51447C41.8801 8.51613 41.3365 8.39001 40.8583 8.13611C40.3801 7.88221 40.002 7.53492 39.724 7.09424C39.4529 6.64665 39.3165 6.14006 39.315 5.57447L39.3017 0.691095L40.9107 0.686702L40.9237 5.46661C40.9245 5.7701 40.991 6.04582 41.1232 6.29377C41.2623 6.5348 41.4496 6.72397 41.6853 6.86127C41.921 6.99858 42.1876 7.06682 42.4852 7.06601C42.7897 7.06518 43.0559 6.99548 43.2839 6.85691C43.5188 6.71832 43.7017 6.52814 43.8325 6.28637C43.9702 6.03768 44.0387 5.7616 44.0379 5.45811L44.0248 0.6782L45.6338 0.673807L45.6471 5.55718C45.6487 6.12277 45.5117 6.63011 45.2361 7.07919C44.9674 7.52137 44.5946 7.87071 44.1178 8.12721C43.641 8.38372 43.0981 8.51281 42.4891 8.51447Z" fill="#1B2559"/>
<path d="M0.266028 8.5056L0.244984 0.797729L1.85397 0.793337L1.86307 4.12479L4.87343 4.11657L4.86433 0.785118L6.47332 0.780725L6.49436 8.48859L4.88538 8.49298L4.87724 5.5133L1.86688 5.52152L1.87501 8.5012L0.266028 8.5056Z" fill="#1B2559"/>
<path d="M18.5051 2.80677L20.0622 2.80252L20.0776 8.4515L18.5206 8.45576L18.5051 2.80677Z" fill="#1B2559"/>
<path d="M18.5038 2.29981L18.4995 0.74789L20.0566 0.743639L20.0608 2.29556L18.5038 2.29981Z" fill="#1B2559"/>
<path d="M46.9068 0.670331L46.9278 8.3782L48.5368 8.3738L48.5158 0.665939L46.9068 0.670331Z" fill="#1B2559"/>
</g>
</svg>
