<svg width="10" height="10" viewBox="0 0 10 10" fill="none" xmlns="http://www.w3.org/2000/svg">
<g id="icon 1" clip-path="url(#clip0_285_44)">
<path id="Vector" d="M2.77565 6.3913L7.05313 6.37962L7.0582 8.23939L2.78073 8.25107L2.77565 6.3913Z" fill="#4318FF"/>
<path id="Vector_2" d="M7.20297 6.76976C7.2013 6.15814 6.95869 5.57222 6.52852 5.14092C6.09834 4.70961 5.51585 4.46823 4.90916 4.46989C4.30246 4.47155 3.72129 4.7161 3.29348 5.14976C2.86567 5.5834 2.62626 6.17063 2.62793 6.78225L7.20297 6.76976Z" fill="#4318FF"/>
<path id="Vector_3" fill-rule="evenodd" clip-rule="evenodd" d="M4.92632 7.35248C6.23589 7.34891 7.29463 6.28438 7.29105 4.9748C7.28748 3.66522 6.22294 2.60649 4.91337 2.61006C3.60379 2.61364 2.54506 3.67817 2.54863 4.98775C2.55221 6.29732 3.61674 7.35606 4.92632 7.35248ZM4.93139 9.21225C7.2681 9.20587 9.1572 7.30643 9.15082 4.96972C9.14444 2.63301 7.245 0.743909 4.90829 0.750289C2.57158 0.756669 0.682479 2.65611 0.688859 4.99282C0.695239 7.32953 2.59468 9.21863 4.93139 9.21225Z" fill="#4318FF"/>
</g>
<defs>
<clipPath id="clip0_285_44">
<rect width="8.462" height="8.462" fill="white" transform="translate(0.677307 0.761841) rotate(-0.156431)"/>
</clipPath>
</defs>
</svg>
